<svg xmlns="http://www.w3.org/2000/svg" viewBox="0 0 27.822 20.898">
  <defs>
    <style>
      .cls-1 {
        fill: #013759;
      }
      
    </style>
  </defs>
  <path id="Path_4" data-name="Path 4" class="cls-1" d="M19.395,25.961a12.342,12.342,0,0,1,2.832-1.6,7.036,7.036,0,0,1,2.4-.43,6.439,6.439,0,0,1,3.457.82,4.682,4.682,0,0,1,1.875,2.129,6.324,6.324,0,0,1,.449,2.988,10.968,10.968,0,0,1-.82,3.4q-.469,1.094-1.23,2.617t-1.641,3.125q-.879,1.6-1.758,3.145t-1.5,2.676H18.223l3.4-11.289Zm15.664,0a12.554,12.554,0,0,1,2.813-1.6,6.873,6.873,0,0,1,2.383-.43,6.253,6.253,0,0,1,3.4.82A4.815,4.815,0,0,1,45.527,26.9a6.6,6.6,0,0,1,.508,3.008,9.843,9.843,0,0,1-.781,3.359q-.469,1.094-1.25,2.617t-1.66,3.125q-.879,1.6-1.758,3.145t-1.5,2.676H33.848l3.4-11.289Z" transform="translate(-18.223 -23.93)"/>
</svg>
